# xmcd
#
# Track frame offsets:
#	150
#	19581
#	37042
#	58375
#	76059
#	95290
#	131559
#	151771
#	179283
#	197990
#
# Disc length: 3472 seconds
#
# Revision: 0
# Processed by: cddbd v1.4PL0 Copyright (c) Steve Scherf et al.
# Submitted via: dBpowerAMP V4.0
#
DISCID=7b0d8e0a
DTITLE=Steve Somers Band - Blue Condition
DYEAR=1998
DGENRE=Blues
TTITLE0=Steve's Blues
TTITLE1=Shakey Ground
TTITLE2=Let the Good Times Roll
TTITLE3=Someone Else is Steppin' In
TTITLE4=Dr. Feelgood
TTITLE5=Tonk
TTITLE6=Blues is Alright
TTITLE7=Desire
TTITLE8=I Believe
TTITLE9=I'll Take You There
EXTD=
EXTT0=
EXTT1=
EXTT2=
EXTT3=
EXTT4=
EXTT5=
EXTT6=
EXTT7=
EXTT8=
EXTT9=
PLAYORDER=
